<?xml version="1.0" encoding="UTF-8" standalone="no"?><!-- Generator: Gravit.io --><svg xmlns="http://www.w3.org/2000/svg" xmlns:xlink="http://www.w3.org/1999/xlink" style="isolation:isolate" viewBox="0 0 658.007 148.5" width="658.007pt" height="148.5pt"><defs><clipPath id="_clipPath_lkuuDTfEA1UEKy3P45I09g494ZXKHFyW"><rect width="658.007" height="148.5"/></clipPath></defs><g clip-path="url(#_clipPath_lkuuDTfEA1UEKy3P45I09g494ZXKHFyW)"><g><g/><g/></g><g><g><g><g><clipPath id="_clipPath_8UPBxNA18ywWQQ8rZ4Q8XkPqxyoPLkgu"><path d=" M 172.254 0 L 51.841 0 L 51.841 145.811 L 172.254 145.811 L 172.254 0 Z " fill="rgb(255,255,255)"/></clipPath><g clip-path="url(#_clipPath_8UPBxNA18ywWQQ8rZ4Q8XkPqxyoPLkgu)"><path d=" M 77.45 18.095 C 77.45 15.151 81.764 8.798 85.19 4.525 C 88.617 8.795 92.929 15.149 92.929 18.095 C 92.929 22.362 89.458 25.834 85.19 25.834 C 80.922 25.834 77.45 22.362 77.45 18.095 Z  M 63.626 110.525 C 61.546 108.445 60.102 100.901 59.504 95.459 C 64.947 96.056 72.491 97.499 74.572 99.58 C 77.431 102.439 77.546 106.977 74.99 110.015 C 74.84 110.093 74.69 110.172 74.565 110.3 C 74.433 110.446 74.327 110.614 74.251 110.796 C 71.289 113.425 66.456 113.354 63.633 110.532 M 63.633 79.773 C 61.553 77.693 60.109 70.151 59.512 64.705 C 64.955 65.306 72.498 66.747 74.58 68.83 C 76.914 71.162 77.422 74.619 76.146 77.466 C 75.619 78.51 75.03 79.306 74.306 79.998 C 71.347 82.673 66.475 82.615 63.635 79.776 M 63.635 49.014 C 61.556 46.936 60.111 39.395 59.515 33.948 C 64.957 34.545 72.497 35.987 74.582 38.073 C 77.596 41.097 77.596 45.99 74.582 49.015 C 71.658 51.938 66.56 51.938 63.637 49.015 M 95.822 38.071 C 97.902 35.99 105.444 34.547 110.889 33.947 C 110.289 39.392 108.85 46.933 106.765 49.015 C 103.842 51.938 98.745 51.938 95.82 49.015 C 94.364 47.568 93.548 45.599 93.552 43.546 C 93.552 41.476 94.357 39.533 95.819 38.071 M 95.819 68.83 C 97.901 66.751 105.443 65.306 110.887 64.709 C 110.287 70.154 108.844 77.696 106.763 79.777 C 103.924 82.617 99.049 82.675 96.094 79.999 C 95.172 79.101 94.668 78.554 94.245 77.471 C 92.912 74.546 93.54 71.101 95.819 68.834 M 95.819 99.593 C 97.902 97.512 105.444 96.07 110.888 95.469 C 110.292 100.916 108.848 108.455 106.768 110.538 C 103.945 113.36 99.114 113.431 96.152 110.802 C 96.073 110.621 95.965 110.455 95.831 110.31 C 95.703 110.192 95.558 110.096 95.4 110.023 C 94.225 108.626 93.556 106.904 93.556 105.063 C 93.55 103.009 94.367 101.039 95.824 99.591 M 139.116 41.668 C 139.116 39.53 142.269 34.722 145.081 31.167 C 147.889 34.722 151.041 39.53 151.041 41.668 C 151.041 44.957 148.366 47.63 145.079 47.63 C 141.789 47.627 139.122 44.96 139.117 41.67 M 127.774 116.563 C 126.263 115.052 125.091 109.424 124.564 104.921 C 129.062 105.448 134.692 106.618 136.205 108.132 C 138.402 110.33 138.496 113.813 136.541 116.153 C 136.423 116.225 136.299 116.281 136.199 116.383 C 136.081 116.5 136.016 116.641 135.938 116.778 C 133.654 118.791 129.943 118.736 127.774 116.564 M 127.774 91.568 C 126.263 90.054 125.091 84.429 124.564 79.926 C 129.062 80.451 134.692 81.623 136.205 83.137 C 137.886 84.823 138.404 87.346 137.524 89.558 C 136.927 90.964 136.665 91.268 135.805 91.89 C 133.513 93.788 129.903 93.698 127.774 91.569 M 127.774 66.565 C 126.263 65.051 125.091 59.423 124.564 54.923 C 129.062 55.445 134.692 56.62 136.205 58.134 C 138.529 60.464 138.529 64.235 136.205 66.565 C 133.953 68.817 130.026 68.817 127.774 66.565 Z  M 153.935 58.134 C 155.449 56.62 161.074 55.449 165.577 54.923 C 165.051 59.423 163.88 65.051 162.366 66.565 C 160.115 68.817 156.187 68.817 153.935 66.565 C 151.611 64.235 151.611 60.464 153.935 58.134 M 153.935 83.135 C 155.449 81.624 161.074 80.453 165.577 79.925 C 165.051 84.428 163.88 90.053 162.366 91.567 C 160.239 93.698 156.628 93.785 154.335 91.89 C 153.5 91.227 153.108 90.746 152.623 89.561 C 151.742 87.348 152.26 84.823 153.941 83.137 M 153.941 108.141 C 155.455 106.629 161.083 105.459 165.583 104.93 C 165.057 109.433 163.886 115.058 162.372 116.572 C 160.203 118.744 156.493 118.8 154.209 116.789 C 154.13 116.653 154.065 116.511 153.948 116.393 C 153.847 116.289 153.722 116.237 153.606 116.161 C 151.652 113.82 151.746 110.34 153.942 108.14 M 170.501 142.295 L 146.829 142.295 L 146.829 125.895 L 152.703 120.087 C 154.294 121.222 156.2 121.832 158.154 121.833 C 160.686 121.833 163.068 120.846 164.86 119.053 C 168.169 115.746 169.137 105.179 169.298 103.096 C 169.337 102.584 169.152 102.08 168.789 101.716 C 168.428 101.345 167.92 101.158 167.405 101.207 C 165.322 101.363 154.756 102.332 151.447 105.644 C 148.21 108.881 147.806 113.893 150.237 117.573 L 146.831 120.94 L 146.831 99.573 L 151.973 94.486 C 153.696 95.979 155.849 96.83 158.159 96.83 C 160.675 96.838 163.089 95.84 164.864 94.058 C 168.173 90.75 169.141 80.185 169.301 78.099 C 169.341 77.587 169.155 77.083 168.792 76.719 C 168.429 76.354 167.923 76.168 167.409 76.21 C 165.326 76.367 154.76 77.333 151.451 80.645 C 148.456 83.639 147.927 88.137 149.783 91.709 L 146.833 94.623 L 146.833 76.077 L 152.811 70.167 C 154.383 71.25 156.248 71.829 158.157 71.828 C 160.674 71.834 163.088 70.833 164.863 69.048 C 168.171 65.74 169.14 55.174 169.3 53.088 C 169.34 52.575 169.153 52.071 168.789 51.707 C 168.425 51.343 167.921 51.156 167.408 51.196 C 165.325 51.356 154.758 52.323 151.45 55.633 C 148.178 58.903 147.808 63.978 150.322 67.667 L 146.831 71.125 L 146.831 50.966 C 151.223 50.137 154.557 46.287 154.557 41.66 C 154.557 36.981 147.77 28.826 146.409 27.238 C 145.74 26.458 144.404 26.458 143.734 27.238 C 142.374 28.826 135.589 36.981 135.589 41.66 C 135.589 46.287 138.922 50.137 143.311 50.966 L 143.311 71.122 L 139.821 67.672 C 142.333 63.981 141.966 58.905 138.696 55.636 C 135.386 52.326 124.822 51.359 122.736 51.198 C 122.223 51.158 121.718 51.343 121.354 51.707 C 120.99 52.071 120.804 52.575 120.844 53.088 C 121.006 55.174 121.974 65.74 125.281 69.05 C 127.057 70.834 129.473 71.835 131.99 71.828 C 133.927 71.828 135.771 71.24 137.336 70.167 L 143.308 76.077 L 143.308 94.617 L 140.362 91.702 C 142.216 88.13 141.69 83.633 138.696 80.639 C 135.386 77.329 124.822 76.362 122.736 76.201 C 122.222 76.149 121.718 76.35 121.355 76.713 C 120.993 77.076 120.807 77.581 120.846 78.092 C 121.006 80.178 121.974 90.743 125.284 94.052 C 127.058 95.836 129.472 96.837 131.989 96.832 C 134.286 96.832 136.439 95.979 138.162 94.486 L 143.304 99.573 L 143.304 120.938 L 139.9 117.573 C 142.331 113.893 141.929 108.881 138.69 105.644 C 135.382 102.332 124.817 101.363 122.731 101.207 C 122.218 101.166 121.714 101.352 121.35 101.716 C 120.986 102.079 120.799 102.584 120.839 103.096 C 120.998 105.181 121.966 115.746 125.276 119.055 C 127.051 120.836 129.465 121.834 131.981 121.827 C 133.935 121.826 135.84 121.216 137.431 120.082 L 143.3 125.89 L 143.3 142.282 L 86.949 142.282 L 86.949 121.549 L 94.548 114.028 C 96.486 115.488 98.81 116.315 101.278 116.315 C 104.266 116.322 107.133 115.134 109.24 113.016 C 113.294 108.962 114.46 95.195 114.58 93.639 C 114.62 93.126 114.433 92.621 114.071 92.258 C 113.712 91.887 113.203 91.7 112.688 91.749 C 111.135 91.867 97.366 93.035 93.312 97.088 C 91.191 99.194 90.002 102.062 90.01 105.052 C 90.01 107.403 90.748 109.633 92.076 111.515 L 86.947 116.592 L 86.947 89.168 L 93.648 82.535 C 95.737 84.467 98.415 85.557 101.274 85.557 C 104.262 85.564 107.129 84.376 109.236 82.257 C 113.292 78.206 114.456 64.437 114.579 62.881 C 114.618 62.368 114.431 61.864 114.067 61.5 C 113.704 61.137 113.199 60.95 112.687 60.988 C 111.134 61.106 97.364 62.27 93.31 66.326 C 91.19 68.433 90.001 71.299 90.008 74.288 C 90.008 76.233 90.543 78.077 91.466 79.73 L 86.943 84.207 L 86.943 60.264 L 94.669 52.616 C 99.132 55.9 105.325 55.425 109.235 51.499 C 113.294 47.442 114.458 33.674 114.578 32.117 C 114.617 31.608 114.432 31.099 114.069 30.739 C 113.708 30.369 113.2 30.182 112.685 30.23 C 111.132 30.347 97.363 31.515 93.31 35.568 C 89.385 39.472 88.904 45.66 92.18 50.123 L 86.941 55.304 L 86.941 29.175 C 92.312 28.323 96.443 23.698 96.443 18.091 C 96.451 12.36 87.542 1.801 86.526 0.613 C 86.191 0.224 85.702 0.001 85.188 0.001 C 84.675 0.001 84.186 0.224 83.851 0.613 C 82.837 1.801 73.926 12.36 73.926 18.095 C 73.926 23.702 78.057 28.327 83.428 29.179 L 83.428 55.308 L 78.186 50.122 C 81.375 45.723 81.024 39.537 77.061 35.573 C 73.006 31.519 59.241 30.353 57.684 30.233 C 57.171 30.187 56.665 30.374 56.304 30.742 C 55.942 31.107 55.756 31.612 55.795 32.125 C 55.913 33.678 57.082 47.447 61.133 51.5 C 63.243 53.616 66.111 54.802 69.1 54.792 C 71.514 54.792 73.791 54.008 75.704 52.612 L 83.43 60.26 L 83.43 84.208 L 78.904 79.732 C 81.274 75.451 80.692 69.96 77.064 66.33 C 73.007 62.277 59.241 61.107 57.685 60.99 C 57.172 60.948 56.667 61.133 56.305 61.499 C 55.943 61.864 55.758 62.369 55.796 62.882 C 55.914 64.435 57.089 78.205 61.135 82.257 C 63.244 84.378 66.114 85.566 69.105 85.557 C 71.966 85.557 74.645 84.468 76.732 82.535 L 83.436 89.168 L 83.436 116.593 L 78.299 111.509 C 81.381 107.118 80.987 101.012 77.067 97.088 C 73.011 93.035 59.246 91.867 57.689 91.749 C 57.174 91.7 56.665 91.887 56.305 92.258 C 55.943 92.622 55.757 93.127 55.796 93.639 C 55.914 95.195 57.082 108.962 61.135 113.016 C 63.242 115.135 66.111 116.323 69.1 116.315 C 71.569 116.315 73.894 115.488 75.832 114.028 L 83.433 121.549 L 83.433 142.287 L 53.603 142.287 C 52.629 142.287 51.841 143.076 51.841 144.049 C 51.841 145.023 52.629 145.811 53.603 145.811 L 170.492 145.811 C 171.465 145.811 172.254 145.023 172.254 144.049 C 172.254 143.076 171.465 142.287 170.492 142.287" fill-rule="evenodd" fill="rgb(1,2,2)"/></g><clipPath id="_clipPath_nyYSWCVADJHbJlsPRrAMhcoyMUqzN7Zt"><path d=" M 41.17 148.5 L 0 148.5 L 0 0.765 L 41.17 0.765 L 41.17 148.5 Z " fill="rgb(255,255,255)"/></clipPath><g clip-path="url(#_clipPath_nyYSWCVADJHbJlsPRrAMhcoyMUqzN7Zt)"><path d=" M 37.647 66.298 L 21.711 66.298 L 21.711 62.252 L 25.306 62.252 C 26.252 62.215 27 61.438 27 60.491 C 27 59.544 26.252 58.767 25.306 58.73 L 14.59 58.73 C 13.665 58.792 12.946 59.561 12.946 60.488 C 12.946 61.416 13.665 62.185 14.59 62.247 L 18.179 62.247 L 18.179 66.292 L 3.524 66.292 L 3.524 20.047 L 20.582 4.884 L 37.644 20.05 L 37.644 66.298 L 37.647 66.298 Z  M 27.78 132.714 L 12.118 132.714 L 15.564 79.98 L 24.335 79.98 L 27.78 132.714 Z  M 11.316 144.976 L 11.886 136.237 L 28.011 136.237 L 28.583 144.977 L 11.316 144.977 L 11.316 144.976 Z  M 21.754 1.211 C 21.088 0.617 20.082 0.617 19.415 1.211 L 0.593 17.943 C 0.216 18.278 0 18.757 0 19.261 L 0 68.061 C 0 69.031 0.79 69.823 1.762 69.823 L 18.187 69.823 L 18.187 76.456 L 13.913 76.456 C 12.986 76.456 12.216 77.176 12.155 78.103 L 7.678 146.623 C 7.648 147.109 7.819 147.585 8.151 147.94 C 8.483 148.296 8.947 148.498 9.434 148.5 L 30.46 148.5 C 30.947 148.501 31.413 148.3 31.747 147.944 C 32.08 147.588 32.251 147.11 32.218 146.623 L 27.741 78.103 C 27.679 77.177 26.91 76.458 25.983 76.458 L 21.707 76.458 L 21.707 69.82 L 39.405 69.82 C 39.872 69.82 40.321 69.635 40.651 69.304 C 40.981 68.974 41.167 68.526 41.167 68.058 L 41.167 19.259 C 41.167 18.755 40.952 18.275 40.576 17.941 L 21.757 1.209 L 21.754 1.211 Z " fill-rule="evenodd" fill="rgb(1,2,2)"/></g><path d=" M 266.866 54.764 C 273.702 60.471 277.122 69.283 277.122 81.177 C 277.122 93.075 273.632 101.782 266.655 107.309 C 259.674 112.841 248.975 115.599 234.552 115.599 L 217.13 115.599 L 217.13 144.4 L 200.552 144.4 L 200.552 46.194 L 234.271 46.194 C 249.164 46.194 260.03 49.047 266.866 54.764 Z  M 255.135 95.297 C 258.458 91.785 260.122 86.634 260.122 79.842 C 260.122 73.05 258.015 68.251 253.8 65.442 C 249.585 62.632 242.982 61.227 233.99 61.227 L 217.13 61.227 L 217.13 100.566 L 236.378 100.566 C 245.555 100.566 251.811 98.809 255.135 95.297 Z  M 305.222 122.061 L 295.387 144.4 L 277.684 144.4 L 320.957 46.194 L 338.66 46.194 L 381.932 144.4 L 364.23 144.4 L 354.395 122.061 L 305.222 122.061 Z  M 347.651 106.747 L 329.808 66.284 L 311.965 106.747 L 347.651 106.747 Z  M 424.924 61.367 L 424.924 144.4 L 408.346 144.4 L 408.346 61.367 L 378.56 61.367 L 378.56 46.194 L 454.709 46.194 L 454.709 61.367 L 424.924 61.367 Z  M 517.511 129.367 C 523.219 129.367 528.136 128.401 532.263 126.487 C 536.39 124.568 540.693 121.499 545.189 117.285 L 555.866 128.243 C 545.47 139.764 532.847 145.524 518.003 145.524 C 503.163 145.524 490.839 140.747 481.052 131.194 C 471.262 121.64 466.37 109.557 466.37 94.946 C 466.37 80.334 471.358 68.164 481.333 58.417 C 491.309 48.67 503.901 43.805 519.127 43.805 C 534.349 43.805 547.064 49.425 557.271 60.665 L 546.734 72.185 C 542.05 67.689 537.624 64.546 533.457 62.772 C 529.286 60.994 524.395 60.103 518.776 60.103 C 508.853 60.103 500.511 63.308 493.767 69.727 C 487.023 76.137 483.652 84.338 483.652 94.313 C 483.652 104.289 487.001 112.622 493.697 119.322 C 500.392 126.017 508.331 129.367 517.511 129.367 L 517.511 129.367 Z  M 576.098 144.4 L 576.098 46.194 L 592.676 46.194 L 592.676 88.764 L 641.429 88.764 L 641.429 46.194 L 658.007 46.194 L 658.007 144.4 L 641.429 144.4 L 641.429 104.218 L 592.676 104.218 L 592.676 144.4 L 576.098 144.4 Z " fill-rule="evenodd" fill="rgb(0,0,0)"/></g></g></g></g></g></svg>